<?xml version="1.0" encoding="utf-8"?>
<!-- Generator: Adobe Illustrator 26.0.1, SVG Export Plug-In . SVG Version: 6.00 Build 0)  -->
<svg version="1.1" id="Capa_1" xmlns="http://www.w3.org/2000/svg" xmlns:xlink="http://www.w3.org/1999/xlink" x="0px" y="0px"
	 viewBox="0 0 1340.9 1192" style="enable-background:new 0 0 1340.9 1192;" xml:space="preserve">
<style type="text/css">
	.st0{fill:#4682B4;}
	.st1{fill:#1F3662;}
	.st2{fill:#FFFFFF;}
	.st3{fill:#0094B7;}
</style>
<g>
	<g>
		<g>
			<path class="st0" d="M344.44,822.71l-5.1-48.57h-24.58l-4.8,48.57h-22.18l23.38-199.06h32.08l23.68,199.06H344.44z
				 M316.85,754.66h20.39l-9.59-94.43h-1.2L316.85,754.66z"/>
			<path class="st0" d="M375.61,822.71V621.25h21.59v201.46H375.61z"/>
			<path class="st0" d="M477.84,790.03c0,22.59-11.49,33.88-34.48,33.88c-22.39,0-33.58-11.29-33.58-33.88v-79.44
				c0-22.58,11.29-33.88,33.88-33.88c22.78,0,34.18,11.29,34.18,33.88v44.97h-47.07v35.08c0,9.59,4.3,14.39,12.89,14.39
				c8.59,0,12.89-4.8,12.89-14.39v-17.69h21.28V790.03z M456.56,710.29c0-9.79-4.3-14.69-12.89-14.69c-8.6,0-12.89,4.9-12.89,14.69
				v29.68h25.78V710.29z"/>
			<path class="st0" d="M556.99,677.91l-23.68,69.25l24.58,75.55H535.1l-15.29-52.46h-1.2l-15.29,52.46h-22.18l24.58-73.75
				l-23.68-71.05h22.18l15.29,49.76h1.2l14.39-49.76H556.99z"/>
			<path class="st0" d="M589.96,822.71v-20.69l44.37-157.99h-44.07v-20.39h66.55v20.39l-43.77,158.29h44.97v20.39H589.96z"/>
			<path class="st0" d="M715.57,822.71l-0.6-12.59h-1.2c-2.2,3.6-5.05,6.8-8.54,9.59c-3.5,2.8-8.75,4.2-15.74,4.2
				c-8.39,0-14.34-2.2-17.84-6.6c-3.5-4.39-5.25-10.39-5.25-17.99v-28.78c0-4.99,0.5-9.19,1.5-12.59c1-3.4,2.6-6.34,4.8-8.84
				c2.2-2.5,5.1-4.6,8.69-6.3c3.6-1.7,7.99-3.34,13.19-4.95c5.79-1.6,10.44-3.19,13.94-4.8c3.49-1.6,5.25-4.09,5.25-7.5v-20.39
				c0-6.6-4.1-9.89-12.29-9.89c-8.8,0-13.19,3.6-13.19,10.79v18.29h-20.09v-20.69c0-9.19,3-15.99,8.99-20.39
				c6-4.39,14.59-6.6,25.78-6.6c21.59,0,32.38,8.5,32.38,25.48v120.52H715.57z M714.07,745.36c-2.2,1.6-4.15,2.65-5.85,3.15
				c-1.7,0.5-4.35,1.35-7.94,2.55c-5.2,1.6-8.65,3.5-10.34,5.7c-1.7,2.2-2.55,5.5-2.55,9.89v27.58c0,7.2,3.9,10.79,11.69,10.79
				c4,0,7.09-0.9,9.29-2.7c2.2-1.8,4.09-4.5,5.7-8.09V745.36z"/>
			<path class="st0" d="M747.65,864.21v-186.3h19.19l0.6,14.69h1.2c2.4-5.59,5.35-9.64,8.84-12.14c3.49-2.5,8.04-3.75,13.64-3.75
				c7.99,0,14.19,2.4,18.59,7.2c4.39,4.8,6.59,11.69,6.59,20.69v91.14c0,8.99-2.2,15.94-6.59,20.84c-4.4,4.9-10.49,7.34-18.29,7.34
				c-10.19,0-17.29-4.6-21.29-13.79h-1.2v54.09H747.65z M794.72,709.99c0-9.79-4.2-14.69-12.59-14.69c-4,0-6.95,1.1-8.84,3.3
				c-1.9,2.2-3.45,5.7-4.65,10.49v82.44c1.2,4.8,2.75,8.24,4.65,10.34c1.9,2.1,4.84,3.15,8.84,3.15c4,0,7.09-1.1,9.29-3.3
				c2.2-2.2,3.3-5.89,3.3-11.09V709.99z"/>
			<path class="st0" d="M876.56,822.71l-0.6-12.59h-1.2c-2.2,3.6-5.05,6.8-8.54,9.59c-3.5,2.8-8.75,4.2-15.74,4.2
				c-8.39,0-14.34-2.2-17.84-6.6c-3.5-4.39-5.25-10.39-5.25-17.99v-28.78c0-4.99,0.5-9.19,1.5-12.59c1-3.4,2.6-6.34,4.8-8.84
				c2.2-2.5,5.1-4.6,8.69-6.3c3.6-1.7,7.99-3.34,13.19-4.95c5.79-1.6,10.44-3.19,13.94-4.8c3.49-1.6,5.25-4.09,5.25-7.5v-20.39
				c0-6.6-4.1-9.89-12.29-9.89c-8.8,0-13.19,3.6-13.19,10.79v18.29h-20.09v-20.69c0-9.19,3-15.99,8.99-20.39
				c6-4.39,14.59-6.6,25.78-6.6c21.59,0,32.38,8.5,32.38,25.48v120.52H876.56z M875.06,745.36c-2.2,1.6-4.15,2.65-5.85,3.15
				c-1.7,0.5-4.35,1.35-7.94,2.55c-5.2,1.6-8.65,3.5-10.34,5.7c-1.7,2.2-2.55,5.5-2.55,9.89v27.58c0,7.2,3.9,10.79,11.69,10.79
				c4,0,7.09-0.9,9.29-2.7c2.2-1.8,4.09-4.5,5.7-8.09V745.36z"/>
			<path class="st0" d="M954.5,740.56h18.59v49.47c0,11.59-2.2,20.14-6.59,25.63c-4.4,5.5-12.39,8.24-23.98,8.24
				c-11.79,0-20.39-2.75-25.78-8.24c-5.4-5.49-8.09-14.04-8.09-25.63V638.04h21.28v39.87h43.17v19.49h-43.17v92.64
				c0,9.59,4.3,14.39,12.89,14.39c4.2,0,7.19-1.15,8.99-3.45c1.8-2.3,2.7-5.94,2.7-10.94V740.56z"/>
			<path class="st0" d="M1033.34,822.71l-0.6-12.59h-1.2c-2.2,3.6-5.05,6.8-8.54,9.59c-3.5,2.8-8.75,4.2-15.74,4.2
				c-8.39,0-14.34-2.2-17.84-6.6c-3.5-4.39-5.25-10.39-5.25-17.99v-28.78c0-4.99,0.5-9.19,1.5-12.59c1-3.4,2.6-6.34,4.8-8.84
				c2.2-2.5,5.1-4.6,8.69-6.3c3.6-1.7,7.99-3.34,13.19-4.95c5.79-1.6,10.44-3.19,13.94-4.8c3.49-1.6,5.25-4.09,5.25-7.5v-20.39
				c0-6.6-4.1-9.89-12.29-9.89c-8.8,0-13.19,3.6-13.19,10.79v18.29h-20.09v-20.69c0-9.19,3-15.99,8.99-20.39
				c6-4.39,14.59-6.6,25.78-6.6c21.59,0,32.38,8.5,32.38,25.48v120.52H1033.34z M1031.85,745.36c-2.2,1.6-4.15,2.65-5.85,3.15
				c-1.7,0.5-4.35,1.35-7.94,2.55c-5.2,1.6-8.65,3.5-10.34,5.7c-1.7,2.2-2.55,5.5-2.55,9.89v27.58c0,7.2,3.9,10.79,11.69,10.79
				c4,0,7.09-0.9,9.29-2.7c2.2-1.8,4.09-4.5,5.7-8.09V745.36z"/>
		</g>
	</g>
	<g>
		<g>
			<path class="st1" d="M288.37,852.66h19.8c3.48,0,6.81,1.39,9.2,3.87c2.48,2.4,3.87,5.72,3.87,9.2c0,2.71-0.77,5.26-2.32,7.43
				l-0.08,0.08l0.08,0.08c2.17,0.85,4.18,2.17,5.8,3.87c3.4,3.33,5.26,7.81,5.26,12.61c0,4.72-1.86,9.2-5.26,12.61
				c-3.33,3.33-7.81,5.34-12.53,5.34h-23.82V852.66z M308.17,872c3.4-0.08,6.19-2.86,6.19-6.27c0-3.4-2.71-6.19-6.19-6.34h-12.92
				V872H308.17z M312.19,901c6.03-0.15,10.91-5.26,10.91-11.22c0-6.03-4.87-10.98-10.91-11.06h-16.94V901H312.19z"/>
			<path class="st1" d="M337.48,862.18c0-2.4,1.93-4.33,4.41-4.33c2.4,0,4.33,1.93,4.33,4.33c0,2.4-1.93,4.41-4.33,4.41
				C339.42,866.58,337.48,864.57,337.48,862.18z M338.57,872.31h6.65v35.42h-6.65V872.31z"/>
			<path class="st1" d="M390.93,890.02c0,4.95-1.93,9.59-5.49,13.15c-3.48,3.48-8.12,5.41-13.07,5.41s-9.59-1.93-13.15-5.41
				c-3.48-3.56-5.41-8.2-5.41-13.15s1.93-9.59,5.41-13.15c3.56-3.48,8.2-5.34,13.15-5.34s9.59,1.86,13.07,5.34
				C388.99,880.43,390.93,885.07,390.93,890.02z M384.28,890.02c0-6.57-5.34-11.83-11.91-11.83c-6.57,0-11.91,5.26-11.91,11.83
				s5.34,11.91,11.91,11.91C378.94,901.93,384.28,896.6,384.28,890.02z"/>
			<path class="st1" d="M394.1,907.73l21.19-55.07h7.5l-21.27,55.07H394.1z"/>
			<path class="st1" d="M430.45,852.66h34.81v6.65h-27.84v12.92h24.29v6.88h-24.29v21.81h27.15v6.81h-34.11V852.66z"/>
			<path class="st1" d="M505.94,888.71v19.03h-6.65v-19.03c0-5.8-4.64-10.6-10.44-10.6c-5.72,0-10.44,4.8-10.44,10.6v19.03h-6.65
				v-35.42h6.65v3.4c3.02-2.32,6.65-4.1,10.44-4.1c4.56,0,8.9,1.7,12.14,4.95C504.16,879.81,505.94,884.06,505.94,888.71z"/>
			<path class="st1" d="M547.71,888.71v19.03h-6.65v-19.03c0-5.8-4.64-10.6-10.44-10.6c-5.72,0-10.44,4.8-10.44,10.6v19.03h-6.65
				v-35.42h6.65v3.4c3.02-2.32,6.65-4.1,10.44-4.1c4.56,0,8.9,1.7,12.14,4.95C545.93,879.81,547.71,884.06,547.71,888.71z"/>
			<path class="st1" d="M587.69,891.64h-27.3v0.15c0.77,5.88,5.18,10.29,10.29,10.36c3.17-0.15,6.42-1.47,8.66-3.71l5.57,3.33
				c-1.39,1.55-2.94,2.86-4.72,3.94c-2.71,1.62-6.03,2.48-9.36,2.63c-4.64,0-8.9-1.93-11.99-5.41c-2.78-3.02-4.49-6.88-4.79-11.14
				c-0.08-0.54-0.08-1.08-0.08-1.62c0-1.39,0.16-2.78,0.46-4.18c0.7-3.25,2.24-6.19,4.41-8.59c3.09-3.4,7.43-5.34,11.99-5.34
				c4.64,0,8.89,1.93,12.07,5.34c2.17,2.4,3.79,5.34,4.41,8.59C587.85,889.17,587.77,890.95,587.69,891.64z M580.73,886.08
				l-0.08-0.15c-1.55-4.56-5.49-7.66-9.82-7.66c-4.25,0-8.2,3.09-9.82,7.66l-0.08,0.15H580.73z"/>
			<path class="st1" d="M623.04,872.31h6.65v35.42h-6.65v-4.1c-3.33,2.78-7.5,4.87-11.91,4.87c-4.95,0-9.59-1.86-13.15-5.34
				c-3.48-3.56-5.41-8.2-5.41-13.15s1.93-9.59,5.41-13.15c3.56-3.48,8.2-5.34,13.15-5.34c4.41,0,8.59,2.09,11.91,4.87V872.31z
				 M623.04,890.02c0-6.57-5.34-11.99-11.91-11.99c-6.57,0-11.91,5.41-11.91,11.99s5.34,11.99,11.91,11.99
				C617.7,902.01,623.04,896.6,623.04,890.02z"/>
			<path class="st1" d="M673.78,872.31v37.13c0,4.95-1.93,9.67-5.49,13.15c-3.48,3.48-8.12,5.41-13.07,5.41
				c-3.71,0-7.12-1.01-9.98-2.71c-1.16-0.7-2.32-1.62-3.33-2.55l5.03-4.41c2.24,1.78,5.41,3.02,8.28,3.17
				c6.58,0,11.91-5.49,11.91-12.07v-5.8c-3.33,2.78-7.5,4.87-11.91,4.87c-4.95,0-9.59-1.86-13.15-5.34
				c-3.48-3.56-5.42-8.2-5.42-13.15s1.93-9.59,5.42-13.15c3.56-3.48,8.2-5.34,13.15-5.34c4.41,0,8.59,2.09,11.91,4.87v-4.1H673.78z
				 M667.13,890.02c0-6.57-5.34-11.99-11.91-11.99c-6.57,0-11.91,5.41-11.91,11.99s5.34,11.99,11.91,11.99
				C661.79,902.01,667.13,896.6,667.13,890.02z"/>
			<path class="st1" d="M689.79,875.94c2.24-2.48,8.82-4.41,12.92-4.41l-1.62,6.65c-6.19,0-11.29,4.72-11.29,10.67v18.87h-6.65
				v-35.42h6.65V875.94z"/>
			<path class="st1" d="M735.58,872.31h6.65v35.42h-6.65v-4.1c-3.33,2.78-7.5,4.87-11.91,4.87c-4.95,0-9.59-1.86-13.15-5.34
				c-3.48-3.56-5.42-8.2-5.42-13.15s1.93-9.59,5.42-13.15c3.56-3.48,8.2-5.34,13.15-5.34c4.41,0,8.59,2.09,11.91,4.87V872.31z
				 M735.58,890.02c0-6.57-5.34-11.99-11.91-11.99c-6.57,0-11.91,5.41-11.91,11.99s5.34,11.99,11.91,11.99
				C730.24,902.01,735.58,896.6,735.58,890.02z"/>
			<path class="st1" d="M812.69,888.71v19.03h-6.65v-19.03c0-5.8-4.72-10.6-10.44-10.6c-5.8,0-10.52,4.8-10.52,10.6v19.03h-6.65
				v-19.03c0-5.8-4.64-10.6-10.44-10.6c-5.72,0-10.44,4.8-10.44,10.6v19.03h-6.65v-35.42h6.65v3.4c3.02-2.32,6.65-4.1,10.44-4.1
				c4.56,0,8.9,2.01,12.14,5.26c0.62,0.62,1.16,1.24,1.62,1.93c0.54-0.7,1.08-1.31,1.7-1.93c3.25-3.25,7.58-5.26,12.14-5.26
				s8.82,1.7,12.07,4.95C810.91,879.81,812.69,884.06,812.69,888.71z"/>
			<path class="st1" d="M883.07,893.04l5.41,4.02c-5.49,7.35-13.92,11.52-22.97,11.52c-15.93,0-28.85-12.92-28.85-28.85
				c0-15.86,12.92-28.77,28.85-28.77c9.13,0,17.56,4.25,23.05,11.6l-5.49,4.02c-4.18-5.65-10.6-8.82-17.56-8.82
				c-12.22,0-22.04,9.82-22.04,21.97c0,12.22,9.82,22.04,22.04,22.04C872.4,901.78,878.82,898.61,883.07,893.04z"/>
			<path class="st1" d="M931.1,890.02c0,4.95-1.93,9.59-5.49,13.15c-3.48,3.48-8.12,5.41-13.07,5.41s-9.59-1.93-13.15-5.41
				c-3.48-3.56-5.41-8.2-5.41-13.15s1.93-9.59,5.41-13.15c3.56-3.48,8.2-5.34,13.15-5.34s9.59,1.86,13.07,5.34
				C929.17,880.43,931.1,885.07,931.1,890.02z M924.45,890.02c0-6.57-5.34-11.83-11.91-11.83c-6.57,0-11.91,5.26-11.91,11.83
				s5.34,11.91,11.91,11.91C919.12,901.93,924.45,896.6,924.45,890.02z"/>
			<path class="st1" d="M966.76,872.31h6.65v35.42h-6.65v-4.1c-3.33,2.78-7.5,4.87-11.91,4.87c-4.95,0-9.59-1.86-13.15-5.34
				c-3.48-3.56-5.41-8.2-5.41-13.15s1.93-9.59,5.41-13.15c3.56-3.48,8.2-5.34,13.15-5.34c4.41,0,8.59,2.09,11.91,4.87V872.31z
				 M966.76,890.02c0-6.57-5.34-11.99-11.91-11.99c-6.57,0-11.91,5.41-11.91,11.99s5.34,11.99,11.91,11.99
				C961.42,902.01,966.76,896.6,966.76,890.02z"/>
			<path class="st1" d="M1013.79,900.93c-0.62,0.77-1.24,1.55-1.93,2.24c-3.48,3.48-8.12,5.34-13.07,5.34s-9.67-1.86-13.15-5.34
				c-3.48-3.56-5.41-8.2-5.41-13.15s1.93-9.59,5.41-13.15c3.48-3.48,8.2-5.34,13.15-5.34s9.59,1.86,13.07,5.34
				c0.7,0.7,1.31,1.39,1.86,2.17l-5.34,3.94c-2.17-2.94-5.65-4.95-9.59-4.95c-6.57,0-11.91,5.41-11.91,11.99s5.34,11.99,11.91,11.99
				c3.95,0,7.43-2.01,9.59-5.03L1013.79,900.93z"/>
			<path class="st1" d="M1054,888.71v19.03h-6.65v-19.03c0-5.8-4.64-10.6-10.44-10.6c-5.72,0-10.44,4.8-10.44,10.6v19.03h-6.65
				v-56.77h6.65v24.75c3.02-2.32,6.65-4.1,10.44-4.1c4.56,0,8.9,1.7,12.14,4.95C1052.22,879.81,1054,884.06,1054,888.71z"/>
		</g>
	</g>
	<path class="st3" d="M787,540.32c8.64-15.65,15.51-31.83,19.32-49.09c12.56-56.9,2.02-107.97-39.05-151
		c-40.03-41.94-99.03-53.89-151.97-30.64c-37.03,16.27-61.59,44.06-73.05,82.76c-18.12,61.18,7.81,117.59,50.34,144.93
		c39.03,25.09,91.97,20.59,122.03-10.62c1.4-1.45,2.68-3.03,5.2-5.88c-5.84,1.47-10.03,2.84-14.32,3.56
		c-34.85,5.85-68.28,2.6-97.63-18.71c-29.66-21.54-42.6-61.92-33.01-98.44c9.8-37.33,41.43-66.22,77.84-71.11
		c42.38-5.69,83.1,14.5,105.34,54.6c25.72,46.38,25.96,94.07-2.67,138.88c-35.36,55.34-98.34,75.53-164.31,44.58
		c-53.27-24.99-80.77-69.31-87.86-126.85c-8.8-71.34,34.7-139.21,94.65-167.07c93.36-43.37,202.27,3.69,233.5,99.89
		c5.27,16.23,8.23,32.95,7.28,50c-2.25,40.35-15.08,76.54-43.7,106.09C792.99,538.23,791.48,541.57,787,540.32z M700.49,499.42
		c8.98-0.03,17.9-0.7,26.84-1.56c5.19-0.5,7.57-2.7,9.04-7.53c5.33-17.5,6.17-35.07,2.74-53.06c-4.52-23.71-15.57-43.15-36.02-56.46
		c-27.11-17.65-59.3-14.29-82.42,8.2c-22.01,21.42-18.52,64.63,7.03,86.78C648.63,493.93,673.49,499.98,700.49,499.42z"/>
</g>
</svg>
